<?xml version="1.0" encoding="UTF-8" standalone="no"?>
<!-- Created with sK1/UniConvertor (http://sk1project.org/) -->

<svg
   xmlns:dc="http://purl.org/dc/elements/1.1/"
   xmlns:cc="http://creativecommons.org/ns#"
   xmlns:rdf="http://www.w3.org/1999/02/22-rdf-syntax-ns#"
   xmlns:svg="http://www.w3.org/2000/svg"
   xmlns="http://www.w3.org/2000/svg"
   xmlns:sodipodi="http://sodipodi.sourceforge.net/DTD/sodipodi-0.dtd"
   xmlns:inkscape="http://www.inkscape.org/namespaces/inkscape"
   width="810"
   height="700"
   viewBox="0 0 648.00002 559.99997"
   id="svg2"
   version="1.1"
   inkscape:version="0.91 r13725"
   sodipodi:docname="Logo Stade Bordelais.svg"
   style="fill-rule:evenodd">
  <metadata
     id="metadata34">
    <rdf:RDF>
      <cc:Work
         rdf:about="">
        <dc:format>image/svg+xml</dc:format>
        <dc:type
           rdf:resource="http://purl.org/dc/dcmitype/StillImage" />
        <dc:title></dc:title>
      </cc:Work>
    </rdf:RDF>
  </metadata>
  <defs
     id="defs32" />
  <sodipodi:namedview
     pagecolor="#ffffff"
     bordercolor="#666666"
     borderopacity="1"
     objecttolerance="10"
     gridtolerance="10"
     guidetolerance="10"
     inkscape:pageopacity="0"
     inkscape:pageshadow="2"
     inkscape:window-width="1440"
     inkscape:window-height="788"
     id="namedview30"
     showgrid="false"
     inkscape:zoom="0.33631156"
     inkscape:cx="106.92442"
     inkscape:cy="310.50005"
     inkscape:window-x="0"
     inkscape:window-y="1"
     inkscape:window-maximized="1"
     inkscape:current-layer="svg2"
     units="px"
     showguides="false">
    <sodipodi:guide
       position="62.442102,215.27656"
       orientation="1,0"
       id="guide5137" />
  </sodipodi:namedview>
  <g
     id="g5150"
     transform="matrix(1.7257347,0,0,1.7246709,178.98978,-154.10744)"
     style="fill:#000000">
    <g
       transform="translate(-0.36483149,0)"
       id="g5146"
       style="fill:#000000">
      <path
         inkscape:connector-curvature="0"
         style="fill:#000000"
         d="m -55.603516,111.69336 c -3.8005,0 -15.222656,59.79514 -15.222656,79.69336 l 0,5.20508 -10.25,7.69922 c -5.6375,4.23475 -14.075,10.88656 -18.75,14.78125 -12.063648,10.05009 -30.739858,28.73252 -29.285158,29.29492 0.66821,0.25833 4.71821,-2.18697 9,-5.4336 15.17657,-11.50747 46.555997,-31.30962 47.734377,-30.12304 0.20877,0.21022 0.879907,8.03281 1.492187,17.38281 5.12334,78.23703 34.926284,145.22196 88.558594,199.04492 20.23822,20.31016 36.591984,33.15394 61.183594,48.05274 6.44381,3.90398 11.858883,7.52585 12.033203,8.04882 0.62285,1.86855 -23.795644,15.02636 -45.152344,24.33008 -7.11438,3.09928 -13.113081,6.17128 -13.332031,6.82813 -0.53872,1.61613 -0.03944,1.55846 10.8125,-1.26367 13.90489,-3.6161 37.52171,-11.86113 50.28125,-17.55469 6.14601,-2.74246 11.67132,-4.98633 12.2793,-4.98633 0.60799,0 5.78295,2.04833 11.5,4.55273 20.57076,9.01114 60.75067,21.9251 62.5664,20.10938 1.14349,-1.1435 -0.72125,-2.28106 -9.94726,-6.07031 -15.5319,-6.37918 -47.69368,-23.11704 -49.2461,-25.62891 -0.26746,-0.43275 2.53649,-2.47717 6.23047,-4.54297 3.69397,-2.06577 12.583,-7.6908 19.75391,-12.5 77.06265,-51.68242 125.45961,-131.67721 135.00195,-223.14258 0.84473,-8.09686 1.53516,-18.55936 1.53516,-23.25 0,-5.23678 0.40251,-8.52734 1.04101,-8.52734 3.21349,0 27.42689,15.04292 43.45704,26.99805 10.30756,7.68728 12.50195,8.9495 12.50195,7.19531 0,-1.3247 -21.81693,-22.29572 -31.57422,-30.34961 -4.9913,-4.11991 -12.67596,-10.09294 -17.07617,-13.27539 l -8,-5.78711 -1.23633,-14.64063 c -1.92928,-22.83013 -9.57782,-63.53812 -13.21484,-70.33398 -2.1519,-4.02084 -2.66717,0.33956 -1.26172,10.69336 1.46755,10.81144 3.04794,60.2762 2.01172,62.97656 -0.54635,1.42375 -1.48443,1.15154 -6.89063,-1.99219 -10.66386,-6.20111 -39.78025,-20.14045 -49.75781,-23.82226 -25.33413,-9.34853 -51.24755,-15.40812 -78,-18.23828 -18.45048,-1.9519 -51.787967,-1.44067 -69.953127,1.07226 -39.49429,5.46358 -79.532563,19.20559 -114.345703,39.2461 -4.29011,2.46963 -8.048009,4.24302 -8.349609,3.9414 -0.9582,-0.9582 -0.4865,-42.79274 0.59375,-52.68359 2.21102,-20.24444 2.364143,-23 1.277343,-23 z m 158.263676,57.05859 c 23.51631,-0.10202 47.4085,1.58697 66.99414,5.00782 8.60836,1.50353 6.8316,2.39318 -6.48047,3.24804 -34.38073,2.20781 -65.477534,20.61246 -81.732424,48.3711 -2.83899,4.84815 -5.748234,9.601 -6.464844,10.5625 -0.71661,0.9615 -20.652734,10.42561 -44.302734,21.03125 -42.6063,19.10643 -43.002167,19.31005 -43.304687,22.39257 -0.16792,1.71107 0.43395,5.97391 1.33789,9.47071 4.3422003,16.79731 12.6330271,32.15255 22.904297,42.42383 5.72856,5.72855 18.405904,14.43359 21.021484,14.43359 0.88502,0 4.314381,-2.89103 7.619141,-6.42383 13.74433,-14.69272 27.79402,-18.46173 35.349609,-9.48242 8.50474,10.1073 -4.358258,22.62402 -26.699218,25.98047 -10.4736,1.57354 -11.728516,2.23896 -11.728516,6.2207 0,18.28105 10.032791,33.22057 28.337891,42.19922 11.40182,5.59257 20.312002,8.0451 22.701172,6.25 0.9114,-0.68479 5.984174,-4.51676 11.271484,-8.51562 12.098735,-9.15045 22.661835,-14.87299 33.007815,-17.88086 4.44389,-1.29198 8.66511,-2.34766 9.38086,-2.34766 3.71223,0 -1.50228,9.06546 -12.06641,20.98047 -5.93896,6.69836 -7.91549,10.01953 -5.96484,10.01953 1.34269,0 18.02618,-9.40954 24.87109,-14.02734 26.02099,-17.5547 42.65402,-41.55389 47.41016,-68.40625 1.34703,-7.60542 1.35463,-27.45939 0.0137,-35.13282 -1.52714,-8.73868 -6.16057,-23.57317 -7.52734,-24.09765 -0.6523,-0.25032 -3.64092,2.00027 -6.64063,5 -7.7645,7.7645 -24.38418,15.49945 -41.04492,19.10547 -1.5125,0.32736 -2.75,1.22565 -2.75,1.99609 0,1.44381 5.28814,2.89307 21.9707,6.01758 4.65903,0.8726 8.87605,1.99128 9.37109,2.48633 0.49504,0.49503 1.12838,4.88814 1.40626,9.76171 0.60241,10.56547 -1.66619,20.99521 -7.0586,32.46094 -5.08084,10.80324 -4.7779,10.57895 -16.68945,12.3418 -27.09248,4.00952 -39.4411,9.23356 -63.003908,26.6543 l -2.88086,2.13086 -5.728515,-2.80274 c -5.53827,-2.70962 -13.386719,-8.88088 -13.386719,-10.52539 0,-0.4418 2.3625,-1.56943 5.25,-2.50586 13.89905,-4.50751 24.049875,-12.6342 29.021484,-23.23633 2.592181,-5.5278 2.898484,-7.14292 2.564454,-13.5 -0.45162,-8.59517 -3.311131,-15.19786 -9.087891,-20.97461 -4.81293,-4.81293 -14.309854,-9.42317 -21.177734,-10.28125 -10.23317,-1.27855 -23.655422,3.07229 -34.019532,11.02735 l -4.951171,3.80078 -5.216797,-5.60352 c -5.54612,-5.95846 -13.667472,-20.7761 -13.175782,-24.03906 0.22897,-1.51956 9.700669,-6.17348 43.292969,-21.27734 23.64945,-10.63333 43.56195,-20.10395 44.25,-21.04493 0.68806,-0.94097 1.250002,-2.38005 1.250002,-3.19726 0,-0.81721 1.86467,-5.34346 4.14258,-10.0586 5.27526,-10.91957 15.98544,-22.01959 25.85742,-26.79882 12.3871,-5.99685 20.69725,-7.6895 38,-7.73438 15.26182,-0.0396 27.00179,0.95404 26.99805,2.2832 -9.9e-4,0.37292 -2.06356,1.9799 -4.58399,3.57227 -5.95552,3.7626 -12.20751,11.36949 -23.81445,28.97852 -9.46127,14.35378 -15.12226,20.49385 -23.34961,25.32226 -9.54006,5.59873 1.41888,5.56474 12.56055,-0.0391 3.68003,-1.8509 15.58804,-9.252 26.46289,-16.44727 24.59095,-16.27043 27.97374,-17.72864 40.94335,-17.65039 9.04135,0.0546 10.18717,0.29793 16.5,3.50782 11.42087,5.8072 15.6623,14.21769 15.60743,30.94921 -0.0284,8.659 -0.45412,10.76028 -4.7168,23.32618 -13.36575,39.4007 -33.16035,76.7179 -58.32227,109.94336 -20.89801,27.59513 -48.35156,54.79131 -75.6582,74.95117 -5.01928,3.70561 -9.88143,6.7425 -10.80469,6.75 -2.12739,0.0159 -18.313605,-12.00288 -31.886715,-23.67774 -59.34651,-51.0466 -102.102444,-120.41607 -121.302734,-196.80859 -3.78852,-15.07345 -7.279329,-33.86287 -8.267579,-44.49609 l -0.615234,-6.61133 7.875,-3.58594 c 28.0874,-12.79007 64.82558,-23.28025 98.875,-28.23242 15.632549,-2.27361 33.695862,-3.43628 51.986332,-3.51563 z"
         id="path5143"
         transform="matrix(0.8,0,0,0.80000008,0,-2.4414065e-5)" />
      <path
         inkscape:connector-curvature="0"
         style="fill:#000000"
         d="m 66.244136,224.79217 c -0.309128,-0.30913 -3.310592,-0.75913 -6.669936,-1 -3.45264,-0.24756 -6.237144,-0.83 -6.405224,-1.33978 -0.279176,-0.84674 21.421504,-14.69817 23.02724,-14.69817 1.190696,0 0.961192,0.63732 -3.36264,9.33788 -3.795184,7.6368 -5.112896,9.17661 -6.58944,7.70007 z"
         id="path4588" />
    </g>
    <g
       transform="matrix(0.51476929,0,0,0.51476929,160.87344,201.44886)"
       style="fill:#000000"
       id="g5132">
      <path
         id="path251"
         style="fill:#000000;fill-opacity:1;fill-rule:nonzero;stroke:none"
         d="m -181.75885,306.50763 c 0,1.84556 0.16245,3.6505 0.45349,5.41709 2.58333,-15.35106 15.92865,-27.06967 32.03328,-27.06967 16.08432,0 29.44317,11.71861 32.01748,27.06967 0.30007,-1.76659 0.45123,-3.57153 0.45123,-5.41709 0,-17.93665 -14.53658,-32.47323 -32.46871,-32.47323 -17.94793,0 -32.48677,14.53658 -32.48677,32.47323"
         inkscape:connector-curvature="0" />
      <path
         id="path255"
         style="fill:#000000;fill-opacity:1;fill-rule:nonzero;stroke:none"
         d="m -144.29494,258.85252 c -1.59512,-0.91827 -3.23988,-1.68086 -4.91171,-2.30807 11.99161,9.92945 15.41875,27.34041 7.36418,41.26332 -8.06585,13.91838 -24.89246,19.59268 -39.46739,14.13498 1.37401,1.13486 2.85407,2.18173 4.44919,3.09774 15.51351,8.99991 35.37693,3.71367 44.37007,-11.80209 8.99992,-15.51351 3.71594,-35.38822 -11.80434,-44.38588"
         inkscape:connector-curvature="0" />
      <path
         id="path259"
         style="fill:#000000;fill-opacity:1;fill-rule:nonzero;stroke:none"
         d="m -154.25826,258.85252 c 1.59512,-0.91827 3.23311,-1.68086 4.91171,-2.30807 -11.99612,9.92945 -15.42552,27.34041 -7.35967,41.26332 8.07037,13.91838 24.89697,19.59268 39.4674,14.13498 -1.37853,1.13486 -2.86084,2.18173 -4.46273,3.09774 -15.49997,8.99991 -35.38371,3.71367 -44.36331,-11.80209 -8.99766,-15.51351 -3.71368,-35.38822 11.8066,-44.38588"
         inkscape:connector-curvature="0" />
    </g>
  </g>
</svg>
